# AST/ASF file generated using VICON BodyLanguage
# -----------------------------------------------
:version 1.10
:name VICON
:units
  mass 1.0
  length 0.45
  angle deg
:documentation
   .ast/.asf automatically generated from VICON data using
   VICON BodyBuilder and BodyLanguage model FoxedUp or BRILLIANT.MOD
:root
   order TX TY TZ RX RY RZ
   axis XYZ
   position 0 0 0  
   orientation 0 0 0 
:bonedata
  begin
     id 1 
     name lhipjoint
     direction 0.677091 -0.635792 0.370561 
     length 2.74323 
     axis 0 0 0  XYZ
  end
  begin
     id 2 
     name lfemur
     direction 0.34202 -0.939693 0  
     length 7.44995  
     axis 0 0 20  XYZ
    dof rx ry rz
    limits (-160.0 20.0)
           (-70.0 70.0)
           (-60.0 70.0)
  end
  begin
     id 3 
     name ltibia
     direction 0.34202 -0.939693 0   
     length 7.34467   
     axis 0 0 20   XYZ
    dof rx
    limits (-10.0 170.0)
  end
  begin
     id 4 
     name lfoot
     direction 0.101953 -0.280114 0.954537   
     length 1.72105   
     axis -90 7.62852e-016 20   XYZ
    dof rx rz
    limits (-45.0 90.0)
           (-70.0 20.0)
  end
  begin
     id 5 
     name ltoes
     direction 1.53537e-011 -4.21915e-011 1   
     length 0.865872   
     axis -90 7.62852e-016 20   XYZ
    dof rx
    limits (-90.0 20.0)
  end
  begin
     id 6 
     name rhipjoint
     direction -0.695735 -0.620586 0.361699   
     length 2.81045  
     axis 0 0 0  XYZ 
  end
  begin
     id 7 
     name rfemur
     direction -0.34202 -0.939693 0   
     length 7.29387   
     axis 0 0 -20   XYZ
    dof rx ry rz
    limits (-160.0 20.0)
           (-70.0 70.0)
           (-70.0 60.0)
  end
  begin
     id 8 
     name rtibia
     direction -0.34202 -0.939693 0   
     length 7.44935   
     axis 0 0 -20   XYZ
    dof rx
    limits (-10.0 170.0)
 end
 begin
     id 9 
     name rfoot
     direction -0.104163 -0.286184 0.952496   
     length 1.77731  
     axis -90 -7.62852e-016 -20   XYZ
    dof rx rz
    limits (-45.0 90.0)
           (-20.0 70.0)
  end
  begin
     id 10 
     name rtoes
     direction -1.5355e-011 -4.21888e-011 1   
     length 0.892424   
     axis -90 -7.62852e-016 -20   XYZ
    dof rx
    limits (-90.0 20.0)
  end
  begin
     id 11 
     name lowerback
     direction 0.0100202 0.997226 -0.0737589   
     length 2.16892   
     axis 0 0 0   XYZ
    dof rx ry rz
    limits (-20.0 45.0)
           (-30.0 30.0)
           (-30.0 30.0)
  end
  begin
     id 12 
     name upperback
     direction 0.00432398 0.999988 -0.00215019   
     length 2.17326   
     axis 0 0 0   XYZ
    dof rx ry rz
    limits (-20.0 45.0)
           (-30.0 30.0)
           (-30.0 30.0)
  end
  begin
     id 13 
     name thorax
     direction -0.00195047 0.999485 0.0320434   
     length 2.18139   
     axis 0 0 0   XYZ
    dof rx ry rz
    limits (-20.0 45.0)
           (-30.0 30.0)
           (-30.0 30.0)
  end
  begin
     id 14 
     name lowerneck
     direction 0.00782762 0.986241 0.165128   
     length 1.88415   
     axis 0 0 0   XYZ
    dof rx ry rz
    limits (-20.0 45.0)
           (-30.0 30.0)
           (-30.0 30.0)
  end
  begin
     id 15 
     name upperneck
     direction 0.00988667 0.981098 -0.193258   
     length 1.9242   
     axis 0 0 0   XYZ
    dof rx ry rz
    limits (-20.0 45.0)
           (-30.0 30.0)
           (-30.0 30.0)
  end
  begin
     id 16
     name head
     direction 0.00252199 0.996513 -0.0833958  
     length 1.93887  
     axis 0 0 0   XYZ
    dof rx ry rz
    limits (-20.0 45.0)
           (-30.0 30.0)
           (-30.0 30.0)
  end
  begin
     id 17 
     name lclavicle
     direction 0.929492 0.368193 -0.0218667  
     length 3.5955  
     axis 0 0 0   XYZ
    dof ry rz
    limits (-20.0 10.0)
           (0.0 20.0)
  end
  begin
     id 18 
     name lhumerus
     direction 1 -4.48972e-011 1.41911e-027   
     length 5.2795   
     axis 180 -30 -90   XYZ
    dof rx ry rz
    limits (-60.0 90.0)
           (-90.0 90.0)
           (-90.0 90.0)
  end
  begin
     id 19
     name lradius
     direction 1 -4.48963e-011 7.05772e-027   
     length 3.53504   
     axis 180 -30 -90   XYZ
    dof rx
    limits (-10.0 170.0)
  end
  begin
     id 20
     name lwrist
     direction 1 -4.48957e-011 9.54866e-027   
     length 1.76752   
     axis -7.69462e-015 90 90   XYZ
    dof ry
    limits (-180.0 0.0)
 end
  begin
     id 21 
     name lhand
     direction 1 -4.48979e-011 1.90973e-026   
     length 0.667948   
     axis -1.21857e-014 90 90   XYZ
    dof rx rz
    limits (-90.0 90.0)
           (-45.0 45.0)
  end
  begin
     id 22 
     name lfingers
     direction 1 -4.48987e-011 3.81946e-026   
     length 0.538517   
     axis -2.43714e-014 90 90   XYZ
    dof rx
    limits (0.0 90.0)
  end
  begin
     id 23
     name lthumb
     direction 0.707107 -6.34962e-011 0.707107   
     length 0.773206   
     axis -90 45 2.85299e-015   XYZ
    dof rx rz
    limits (-45.0 45.0)
           (-45.0 45.0)
  end
  begin
     id 24 
     name rclavicle
     direction -0.898763 0.414256 -0.143584   
     length 3.5176  
     axis 0 0 0   XYZ 
    dof ry rz
    limits (-10.0 20.0)
           (-20.0 0.0)
  end
  begin
     id 25 
     name rhumerus
     direction -1 -4.48971e-011 1.129e-027  
     length 5.25035   
     axis 180 30 90   XYZ
    dof rx ry rz
    limits (-90.0 60.0)
           (-90.0 90.0)
           (-90.0 90.0)
  end
  begin
     id 26 
     name rradius
     direction -1 -4.48955e-011 6.34664e-027   
     length 3.58884   
     axis 180 30 90   XYZ
    dof rx
    limits (-10.0 170.0)
  end
  begin
     id 27 
     name rwrist
     direction -1 -4.48966e-011 9.54866e-027   
     length 1.79442   
     axis -7.69462e-015 -90 -90   XYZ
    dof ry
    limits (-180.0 0.0)
  end
  begin
     id 28
     name rhand
     direction -1 -4.48973e-011 1.90973e-026   
     length 0.779235   
     axis -1.21857e-014 -90 -90   XYZ
    dof rx rz
    limits (-90.0 90.0)
           (-45.0 45.0)
  end
  begin
     id 29
     name rfingers
     direction -1 -4.48984e-011 3.81946e-026   
     length 0.62824   
     axis -2.43714e-014 -90 -90   XYZ
    dof rx
    limits (0.0 90.0)
  end
  begin
     id 30
     name rthumb
     direction -0.707107 -6.34968e-011 0.707107   
     length 0.90203   
     axis -90 -45 -2.85299e-015   XYZ
    dof rx rz
    limits (-45.0 45.0)
           (-45.0 45.0)
  end
:hierarchy
  begin
    root lhipjoint rhipjoint lowerback
    lhipjoint lfemur
    lfemur ltibia
    ltibia lfoot
    lfoot ltoes
    rhipjoint rfemur
    rfemur rtibia
    rtibia rfoot
    rfoot rtoes
    lowerback upperback
    upperback thorax
    thorax lowerneck lclavicle rclavicle
    lowerneck upperneck
    upperneck head
    lclavicle lhumerus
    lhumerus lradius
    lradius lwrist
    lwrist lhand lthumb
    lhand lfingers
    rclavicle rhumerus
    rhumerus rradius
    rradius rwrist
    rwrist rhand rthumb
    rhand rfingers
  end

#!OML:ASF I:\Random Stuff\random\construction\7_22_03\Session 2\subj1.ASF
:FULLY-SPECIFIED
:DEGREES
211
root -0.171335 17.8756 -0.7445 1.27287 70.5059 -9.29233
lowerback 2.70812 0.342212 -0.451228
upperback -0.624371 0.431518 -0.464666
thorax -2.15795 0.218458 -0.24309
lowerneck -20.0526 -0.338726 2.69041
upperneck 46.3941 -1.31698 3.40277
head 23.5059 1.0693 1.32369
rclavicle -7.91163e-014 4.77083e-015
rhumerus -31.0185 40.9521 -99.8317
rradius 82.5575
rwrist -22.4383
rhand -19.7693 9.46862
rfingers 7.12502
rthumb 6.56251 -20.4097
lclavicle -7.91163e-014 4.77083e-015
lhumerus -26.1803 -28.2459 100.184
lradius 77.3245
lwrist 78.0233
lhand -22.4663 71.4084
lfingers 7.12502
lthumb 3.95845 -101.351
rfemur -6.68345 8.39705 20.218
rtibia -1.59028e-014
rfoot 0.149324 -13.899
rtoes -20.0871
lfemur -15.5862 -18.8958 -11.2588
ltibia 18.7992
lfoot -13.2783 19.2841
ltoes -26.6818
212
root -0.172172 17.8744 -0.733549 1.22869 70.3463 -9.32316
lowerback 2.69018 0.342632 -0.477913
upperback -0.603929 0.431997 -0.433153
thorax -2.12732 0.219166 -0.19562
lowerneck -20.1229 -0.189637 2.76517
upperneck 46.3111 -1.07155 3.29674
head 23.4458 1.15191 1.30414
rclavicle -2.48481e-014 7.95139e-016
rhumerus -31.1628 41.5057 -100.173
rradius 82.4741
rwrist -21.8879
rhand -19.7769 9.19294
rfingers 7.12502
rthumb 6.55516 -20.6856
lclavicle -2.48481e-014 7.95139e-016
lhumerus -26.3171 -28.2715 100.341
lradius 77.3378
lwrist 76.1775
lhand -22.9561 71.3446
lfingers 7.12502
lthumb 3.48547 -101.296
rfemur -6.67491 8.56342 20.2699
rtibia 2.38542e-015
rfoot 0.152685 -13.9142
rtoes -20.3685
lfemur -15.4754 -18.9783 -11.2067
ltibia 18.7305
lfoot -13.2617 19.5182
ltoes -26.9814
213
root -0.17256 17.8753 -0.719372 1.13959 70.0641 -9.4131
lowerback 2.64711 0.401747 -0.527591
upperback -0.58332 0.510284 -0.39513
thorax -2.08278 0.258991 -0.131858
lowerneck -20.2517 -0.0667663 2.83425
upperneck 46.2672 -0.870035 3.19604
head 23.4501 1.22005 1.28226
rclavicle 5.46658e-014 1.03368e-014
rhumerus -31.3676 41.99 -100.557
rradius 82.566
rwrist -21.6866
rhand -19.5721 8.43007
rfingers 7.12502
rthumb 6.75293 -21.4422
lclavicle 5.46658e-014 1.03368e-014
lhumerus -26.4547 -28.121 100.506
lradius 77.5399
lwrist 74.6302
lhand -24.0077 71.4171
lfingers 7.12502
lthumb 2.46995 -101.383
rfemur -6.69004 8.85298 20.3416
rtibia 7.95139e-016
rfoot 0.08297 -13.9124
rtoes -19.4173
lfemur -15.3315 -18.9408 -11.1248
ltibia 18.6746
lfoot -13.3733 19.7265
ltoes -26.8559
214
root -0.172606 17.8791 -0.711427 1.13304 69.9123 -9.42182
lowerback 2.65656 0.429328 -0.502899
upperback -0.574009 0.548057 -0.384393
thorax -2.07846 0.277569 -0.136383
lowerneck -20.4232 0.022634 2.83979
upperneck 46.2098 -0.710868 3.1179
head 23.4613 1.26319 1.27503
rclavicle 4.37326e-015 -1.59028e-014
rhumerus -31.6332 42.3948 -100.944
rradius 82.8071
rwrist -21.7724
rhand -19.4561 7.62386
rfingers 7.12502
rthumb 6.86484 -22.2448
lclavicle 4.37326e-015 -1.59028e-014
lhumerus -26.5745 -27.7754 100.685
lradius 77.7829
lwrist 73.4599
lhand -25.8578 71.3161
lfingers 7.12502
lthumb 0.683062 -101.295
rfemur -6.70883 9.00549 20.348
rtibia -1.98785e-014
rfoot -0.102289 -13.9113
rtoes -17.1545
lfemur -15.2682 -18.805 -11.1071
ltibia 18.6667
lfoot -13.3833 19.7367
ltoes -26.885
215
root -0.172884 17.8789 -0.70764 1.18522 69.8367 -9.37282
lowerback 2.70135 0.417307 -0.461338
upperback -0.568325 0.533308 -0.374101
thorax -2.09747 0.269753 -0.148812
lowerneck -20.6226 0.115063 2.82012
upperneck 46.1741 -0.531135 3.03174
head 23.5046 1.30795 1.27555
rclavicle -2.04748e-014 -7.95139e-016
rhumerus -31.9046 42.7418 -101.355
rradius 83.0242
rwrist -21.5633
rhand -19.5625 7.28573
rfingers 7.12502
rthumb 6.76218 -22.5863
lclavicle -2.04748e-014 -7.95139e-016
lhumerus -26.6401 -27.0896 100.882
lradius 77.9376
lwrist 72.2858
lhand -27.6632 71.3186
lfingers 7.12502
lthumb -1.06066 -101.296
rfemur -6.73603 9.08319 20.3464
rtibia 7.95139e-015
rfoot -0.0574555 -13.9038
rtoes -17.2854
lfemur -15.2418 -18.6489 -11.1317
ltibia 18.6522
lfoot -13.3459 19.6639
ltoes -26.891
216
root -0.172453 17.874 -0.702548 1.26432 69.7179 -9.30535
lowerback 2.72372 0.390478 -0.485087
upperback -0.569781 0.497057 -0.3459
thorax -2.11194 0.252127 -0.105144
lowerneck -20.8001 0.247541 2.87275
upperneck 46.193 -0.288555 2.90014
head 23.5908 1.3844 1.25577
rclavicle -1.19271e-015 3.18055e-015
rhumerus -32.1724 42.9952 -101.812
rradius 83.2019
rwrist -20.582
rhand -19.8852 7.21935
rfingers 7.12502
rthumb 6.45068 -22.6624
lclavicle -1.19271e-015 3.18055e-015
lhumerus -26.6201 -26.1048 101.012
lradius 77.9824
lwrist 71.0569
lhand -27.6679 71.9707
lfingers 7.12502
lthumb -1.06518 -101.948
rfemur -6.77419 9.20886 20.3674
rtibia -2.22639e-014
rfoot 0.143134 -13.974
rtoes -19.0049
lfemur -15.2199 -18.4752 -11.1572
ltibia 18.6681
lfoot -13.3439 19.6129
ltoes -27.1758
